<!DOCTYPE svg PUBLIC "-//W3C//DTD SVG 20010904//EN" "http://www.w3.org/TR/2001/REC-SVG-20010904/DTD/svg10.dtd">
<svg version="1.0" xmlns="http://www.w3.org/2000/svg" width="368px" height="368px" viewBox="0 0 3680 3680" preserveAspectRatio="xMidYMid meet">
<g id="layer101" fill="#ff7f00" stroke="none">
 <path d="M0 1840 l0 -1840 1840 0 1840 0 0 1840 0 1840 -1840 0 -1840 0 0 -1840z"/>
 </g>
<g id="layer102" fill="#ffffff" stroke="none">
 <path d="M0 1840 l0 -1840 1840 0 1840 0 0 1840 0 1840 -1840 0 -1840 0 0 -1840z m3074 1132 c299 -84 487 -311 503 -607 13 -239 -93 -414 -356 -586 l-24 -15 64 -46 c95 -68 175 -157 211 -235 27 -58 33 -82 36 -162 5 -111 -8 -180 -53 -276 -83 -179 -240 -301 -455 -353 -55 -13 -163 -16 -677 -19 l-613 -4 0 200 0 200 563 3 c556 3 563 3 618 26 108 43 158 119 159 238 0 121 -51 194 -170 241 -41 16 -97 18 -607 21 l-563 3 0 499 0 500 -560 0 -560 0 0 -965 0 -965 -240 0 -240 0 0 1165 0 1165 1443 -2 1442 -3 79 -23z"/>
 <path d="M2190 2300 l0 -301 353 3 352 3 63 29 c110 51 162 138 162 272 0 123 -58 217 -165 266 -49 22 -59 23 -407 26 l-358 3 0 -301z"/>
 </g>

</svg>