<?xml version="1.0" standalone="no"?>
<!DOCTYPE svg PUBLIC "-//W3C//DTD SVG 20010904//EN"
 "http://www.w3.org/TR/2001/REC-SVG-20010904/DTD/svg10.dtd">
<svg version="1.0" xmlns="http://www.w3.org/2000/svg"
 width="700.000000pt" height="700.000000pt" viewBox="0 0 700.000000 700.000000"
 preserveAspectRatio="xMidYMid meet">
<metadata>
Created by potrace 1.11, written by Peter Selinger 2001-2013
</metadata>
<g transform="translate(0.000000,700.000000) scale(0.100000,-0.100000)"
fill="#000000" stroke="none">
<path d="M210 3512 l0 -2219 2743 5 2742 4 125 38 c153 46 209 68 324 128 384
198 623 566 656 1006 33 450 -145 770 -609 1096 l-107 75 95 70 c264 195 434
415 478 618 22 107 13 395 -16 497 -29 99 -118 283 -178 367 -108 152 -287
299 -464 382 -97 46 -249 97 -329 111 -64 11 -859 27 -1777 34 l-643 5 0 -378
0 -378 233 -6 c127 -4 513 -7 857 -7 344 -1 726 -5 850 -9 220 -8 227 -9 303
-40 133 -53 212 -121 261 -226 61 -131 62 -320 1 -452 -58 -128 -225 -236
-391 -254 -49 -5 -512 -12 -1029 -15 -517 -2 -973 -7 -1012 -10 l-73 -6 0
-949 0 -949 -1062 2 -1063 3 -3 1838 -2 1837 -455 0 -455 0 0 -2218z m5399
-375 c160 -77 252 -174 297 -314 21 -65 30 -272 15 -346 -32 -153 -136 -284
-283 -357 l-83 -40 -165 -10 c-91 -5 -402 -11 -692 -14 l-528 -5 0 573 0 574
668 -5 667 -5 104 -51z"/>
</g>
</svg>
